# xmcd CD database file
#
# Track frame offsets:
#	150
#	6655
#	29584
#	31407
#	65572
#	68833
#	86682
#	88998
#	96398
#	110953
#	112744
#	140737
#	142924
#	160622
#	164419
#
# Disc length: 2566 seconds
#
# Revision: 0
# Processed by: cddbd v1.4PL0 Copyright (c) Steve Scherf et al.
# Submitted via: CDex 1.50beta9
#
DISCID=d80a040f
DTITLE=Gandalf - Visions 1981
DYEAR=1981
DGENRE=New Age
TTITLE0=The magician's theme
TTITLE1=Dance of the fairy children
TTITLE2=Theme
TTITLE3=The keeper of the old forest
TTITLE4=Theme
TTITLE5=Strange mountain scenes
TTITLE6=Theme
TTITLE7=The magician's theme
TTITLE8=The sleeping princess
TTITLE9=Theme
TTITLE10=Mysterious creatures gathering at the gates of darkness
TTITLE11=Theme
TTITLE12=After the evil was defeated
TTITLE13=Theme
TTITLE14=The ships of the immortal
EXTD=YEAR: 1981
EXTT0=
EXTT1=
EXTT2=
EXTT3=
EXTT4=
EXTT5=
EXTT6=
EXTT7=
EXTT8=
EXTT9=
EXTT10=
EXTT11=
EXTT12=
EXTT13=
EXTT14=
PLAYORDER=
